<?xml version="1.0" encoding="utf-8"?>
<!-- Generator: Adobe Illustrator 16.0.0, SVG Export Plug-In . SVG Version: 6.00 Build 0)  -->
<!DOCTYPE svg PUBLIC "-//W3C//DTD SVG 1.1//EN" "http://www.w3.org/Graphics/SVG/1.1/DTD/svg11.dtd">
<svg version="1.1" id="Layer_1" xmlns="http://www.w3.org/2000/svg" xmlns:xlink="http://www.w3.org/1999/xlink" x="0px" y="0px"
	 width="230.416px" height="33.177px" viewBox="9.953 29.054 230.416 33.177" enable-background="new 9.953 29.054 230.416 33.177"
	 xml:space="preserve">
<g>
	<path fill="#13B8A6" stroke="#13B8A6" stroke-width="0.8994" stroke-miterlimit="10" d="M19.863,61.781
		c-3.681,0-5.137-2.141-5.137-4.281c0-1.926,0.428-5.65,0.428-7.662c0-2.869-1.627-3.34-3.639-3.34h-0.257
		c-0.471,0-0.856-0.385-0.856-0.855c0-0.471,0.385-0.856,0.856-0.856h0.257c2.012,0,3.639-0.471,3.639-3.382
		c0-2.611-0.428-3.981-0.428-7.663c0-2.097,1.456-4.238,5.137-4.238c0.557,0,1.028,0.471,1.028,1.027s-0.471,1.027-1.028,1.027
		c-2.055,0-2.697,1.113-2.697,2.654c0,1.755,0.3,4.88,0.3,6.892c0,2.568-1.499,4.538-4.409,4.538c2.911,0,4.409,1.926,4.409,4.537
		c0,1.756-0.3,5.18-0.3,6.893c0,1.541,0.642,2.654,2.697,2.654c0.557,0,1.028,0.471,1.028,1.027S20.419,61.781,19.863,61.781z"/>
</g>
<g>
	<path fill="#13B8A6" stroke="#13B8A6" stroke-width="0.8994" stroke-miterlimit="10" d="M58.176,60.754
		c0-0.557,0.471-1.027,1.027-1.027c2.055,0,2.697-1.113,2.697-2.654c0-1.713-0.3-5.137-0.3-6.893c0-2.568,1.498-4.537,4.409-4.537
		c-2.911,0-4.409-1.97-4.409-4.538c0-2.012,0.3-5.137,0.3-6.892c0-1.541-0.642-2.654-2.697-2.654c-0.556,0-1.027-0.471-1.027-1.027
		s0.471-1.027,1.027-1.027c3.682,0,5.137,2.141,5.137,4.238c0,3.682-0.428,5.052-0.428,7.663c0,2.911,1.627,3.382,3.639,3.382h0.257
		c0.471,0,0.856,0.385,0.856,0.856c0,0.471-0.385,0.855-0.856,0.855h-0.257c-2.012,0-3.639,0.471-3.639,3.34
		c0,2.012,0.428,5.736,0.428,7.662c0,2.098-1.456,4.281-5.137,4.281C58.647,61.781,58.176,61.311,58.176,60.754z"/>
</g>
<path fill="#FFFFFF" d="M47.303,36.438c2.568,0,4.623,2.098,4.623,4.623v6.722c0,2.568-2.098,4.623-4.623,4.623h-2.354l-4.367,5.564
	c0,0-0.342,0.385-0.685,0.385c-0.385,0-0.728-0.428-0.685-2.183c0.043-1.584,0.128-3.724,0.128-3.724h-7.363
	c-2.568,0-4.623-2.098-4.623-4.624v-6.764c0-2.568,2.098-4.623,4.623-4.623H47.303 M47.303,34.426H31.978
	c-3.639,0-6.635,2.997-6.635,6.635v6.722c0,3.639,2.997,6.635,6.635,6.635h5.351c-0.042,0.557-0.042,1.156-0.085,1.67
	c-0.043,1.155,0.043,2.568,0.899,3.51c0.471,0.471,1.07,0.771,1.755,0.771c1.113,0,1.883-0.685,2.14-0.984l0.043-0.043l0.042-0.043
	l3.768-4.794h1.37c3.639,0,6.635-2.997,6.635-6.636v-6.807C53.938,37.423,50.942,34.426,47.303,34.426L47.303,34.426z"/>
<path fill="none" stroke="#FFFFFF" stroke-width="2.7063" stroke-linecap="round" stroke-miterlimit="10" d="M49.187,42.046"/>
<path fill="none" stroke="#474A4A" stroke-width="2.7063" stroke-linecap="round" stroke-miterlimit="10" d="M44.392,38.835"/>
<path fill="none" stroke="#FFFFFF" stroke-linecap="round" stroke-miterlimit="10" d="M45.719,39.007
	c1.969,0,3.553,1.584,3.553,3.553"/>
<g>
	<path fill="#FFFFFF" d="M82.748,34.94h2.055v8.134c0.471-0.771,1.07-1.413,1.841-1.926c0.771-0.514,1.712-0.813,2.911-0.813
		c0.856,0,1.584,0.128,2.226,0.385s1.199,0.642,1.669,1.156c0.471,0.514,0.813,1.07,1.027,1.755
		c0.257,0.685,0.343,1.413,0.343,2.268v8.605h-2.055v-8.049c0-1.284-0.343-2.311-0.985-3.039c-0.642-0.771-1.626-1.113-2.868-1.113
		c-0.599,0-1.156,0.085-1.669,0.299c-0.514,0.214-0.942,0.514-1.327,0.899c-0.385,0.385-0.685,0.856-0.856,1.37
		c-0.214,0.557-0.3,1.113-0.3,1.755v7.92h-2.055V34.94H82.748z"/>
	<path fill="#FFFFFF" d="M102.098,54.889c-0.642,0-1.284-0.086-1.926-0.257s-1.199-0.471-1.669-0.813
		c-0.471-0.385-0.856-0.812-1.156-1.369c-0.299-0.557-0.428-1.156-0.428-1.885v-0.042c0-0.771,0.128-1.413,0.428-1.97
		c0.3-0.557,0.685-1.027,1.242-1.412c0.514-0.385,1.156-0.643,1.883-0.856c0.728-0.214,1.542-0.3,2.397-0.3
		c0.899,0,1.669,0.043,2.312,0.172c0.642,0.128,1.284,0.256,1.926,0.428v-0.428c0-1.242-0.342-2.141-1.07-2.783
		c-0.728-0.642-1.712-0.941-3.04-0.941c-0.813,0-1.584,0.085-2.226,0.257c-0.685,0.171-1.327,0.428-1.969,0.728l-0.599-1.712
		c0.771-0.342,1.541-0.642,2.354-0.856c0.771-0.214,1.712-0.342,2.697-0.342c1.969,0,3.467,0.514,4.495,1.541
		c0.985,0.984,1.456,2.312,1.456,4.067v8.476h-2.055v-2.055c-0.471,0.642-1.113,1.198-1.969,1.669
		C104.324,54.632,103.339,54.889,102.098,54.889z M102.526,53.176c0.642,0,1.241-0.085,1.798-0.256
		c0.557-0.172,1.027-0.429,1.456-0.771c0.428-0.342,0.771-0.727,0.984-1.155c0.257-0.471,0.342-0.942,0.342-1.498v-1.284
		c-0.514-0.129-1.113-0.258-1.755-0.386s-1.413-0.171-2.269-0.171c-1.284,0-2.269,0.257-2.997,0.771
		c-0.685,0.514-1.07,1.198-1.07,2.012v0.043c0,0.429,0.085,0.813,0.299,1.155c0.171,0.343,0.428,0.643,0.771,0.856
		c0.343,0.214,0.685,0.429,1.113,0.515C101.627,53.134,102.055,53.176,102.526,53.176z"/>
	<path fill="#FFFFFF" d="M118.45,54.889c-1.027,0-1.969-0.214-2.825-0.557c-0.856-0.385-1.627-0.898-2.269-1.541
		s-1.113-1.412-1.498-2.312c-0.342-0.856-0.557-1.798-0.557-2.782v-0.043c0-0.984,0.171-1.927,0.557-2.783
		c0.342-0.856,0.856-1.626,1.498-2.312c0.642-0.642,1.37-1.199,2.269-1.584c0.856-0.385,1.798-0.557,2.825-0.557
		c0.642,0,1.284,0.043,1.798,0.171c0.557,0.128,1.028,0.3,1.499,0.514c0.428,0.214,0.856,0.471,1.241,0.813
		c0.385,0.299,0.728,0.642,1.028,0.984l-1.37,1.456c-0.557-0.557-1.156-1.07-1.798-1.499c-0.642-0.428-1.456-0.599-2.397-0.599
		c-0.685,0-1.37,0.128-1.969,0.428c-0.599,0.257-1.156,0.642-1.583,1.156c-0.428,0.471-0.813,1.07-1.028,1.712
		c-0.257,0.643-0.385,1.369-0.385,2.098v0.043c0,0.77,0.128,1.455,0.385,2.098c0.257,0.642,0.6,1.241,1.07,1.712
		c0.471,0.514,0.985,0.899,1.627,1.155c0.599,0.258,1.284,0.429,2.012,0.429c0.899,0,1.669-0.214,2.397-0.6
		c0.685-0.386,1.327-0.899,1.883-1.498l1.327,1.241c-0.685,0.771-1.498,1.413-2.397,1.927
		C120.848,54.632,119.734,54.889,118.45,54.889z"/>
	<path fill="#FFFFFF" d="M126.199,34.94h2.055v13.527l7.49-7.833h2.569l-5.822,5.95l6.036,7.92h-2.482l-4.967-6.465l-2.824,2.869
		v3.639h-2.055V34.94z"/>
	<path fill="#FFFFFF" d="M139.897,51.764h2.482v2.825h-2.482V51.764z"/>
	<path fill="#FFFFFF" d="M145.548,34.94h0.856v9.29c0.171-0.385,0.385-0.813,0.685-1.241c0.3-0.428,0.642-0.813,1.07-1.156
		c0.429-0.342,0.942-0.642,1.499-0.856c0.556-0.214,1.24-0.342,1.969-0.342c0.898,0,1.67,0.128,2.396,0.428
		c0.686,0.3,1.285,0.685,1.756,1.242c0.471,0.514,0.855,1.156,1.07,1.883c0.256,0.728,0.385,1.541,0.385,2.397v7.92h-0.855v-7.706
		c0-1.584-0.429-2.825-1.242-3.81c-0.812-0.985-2.012-1.456-3.596-1.456c-0.728,0-1.369,0.128-2.012,0.428
		c-0.6,0.257-1.156,0.642-1.627,1.156c-0.471,0.471-0.813,1.07-1.07,1.712s-0.385,1.371-0.385,2.14v7.62h-0.856V34.94H145.548z"/>
	<path fill="#FFFFFF" d="M164.598,54.889c-0.643,0-1.284-0.086-1.884-0.257c-0.599-0.171-1.155-0.429-1.669-0.771
		s-0.856-0.771-1.156-1.327c-0.3-0.514-0.428-1.112-0.428-1.798v-0.043c0-0.685,0.171-1.327,0.471-1.883
		c0.299-0.557,0.728-1.027,1.241-1.371c0.514-0.385,1.155-0.642,1.884-0.855c0.728-0.172,1.541-0.3,2.396-0.3
		c0.942,0,1.842,0.086,2.654,0.214c0.814,0.129,1.541,0.343,2.184,0.557v-0.898c0-1.542-0.428-2.654-1.284-3.425
		c-0.856-0.728-2.055-1.113-3.554-1.113c-0.855,0-1.626,0.085-2.311,0.3c-0.729,0.214-1.413,0.471-2.098,0.813l-0.343-0.771
		c0.771-0.342,1.498-0.642,2.269-0.856s1.584-0.342,2.525-0.342c1.885,0,3.297,0.514,4.281,1.498
		c0.428,0.428,0.771,0.985,0.984,1.627c0.215,0.642,0.343,1.37,0.343,2.226v8.434h-0.856v-2.826
		c-0.171,0.386-0.428,0.729-0.771,1.113s-0.728,0.686-1.198,1.027c-0.471,0.3-1.027,0.557-1.67,0.728
		C166.053,54.803,165.368,54.889,164.598,54.889z M164.641,54.075c0.812,0,1.584-0.128,2.269-0.343
		c0.685-0.256,1.284-0.557,1.798-0.984s0.898-0.898,1.199-1.412c0.299-0.557,0.428-1.113,0.428-1.713v-1.67
		c-0.643-0.213-1.37-0.385-2.184-0.556c-0.77-0.128-1.712-0.214-2.697-0.214c-0.77,0-1.455,0.086-2.055,0.214
		c-0.599,0.171-1.155,0.386-1.584,0.685c-0.428,0.3-0.77,0.643-1.027,1.113c-0.256,0.428-0.385,0.941-0.385,1.498v0.043
		c0,0.557,0.129,1.027,0.342,1.455c0.215,0.429,0.557,0.771,0.942,1.07c0.386,0.3,0.856,0.514,1.37,0.643
		C163.527,53.99,164.084,54.075,164.641,54.075z"/>
	<path fill="#FFFFFF" d="M174.529,41.019h0.855v3.21c0.172-0.385,0.386-0.813,0.686-1.241c0.3-0.428,0.643-0.813,1.07-1.156
		c0.428-0.342,0.941-0.642,1.498-0.856s1.242-0.342,1.969-0.342c0.899,0,1.67,0.128,2.398,0.428c0.684,0.3,1.283,0.685,1.754,1.242
		c0.471,0.514,0.856,1.156,1.07,1.883c0.258,0.728,0.386,1.541,0.386,2.397v7.92h-0.856v-7.706c0-1.584-0.428-2.825-1.241-3.81
		c-0.813-0.985-2.013-1.456-3.596-1.456c-0.728,0-1.37,0.128-2.013,0.428c-0.599,0.257-1.155,0.642-1.626,1.156
		c-0.472,0.471-0.813,1.07-1.07,1.712s-0.386,1.371-0.386,2.14v7.62h-0.855v-13.57H174.529z"/>
	<path fill="#FFFFFF" d="M195.377,54.889c-0.899,0-1.799-0.172-2.611-0.514c-0.813-0.342-1.541-0.855-2.141-1.455
		c-0.6-0.643-1.07-1.37-1.455-2.227c-0.343-0.855-0.557-1.798-0.557-2.868v-0.042c0-1.027,0.171-1.97,0.557-2.826
		c0.342-0.856,0.855-1.626,1.455-2.226c0.6-0.642,1.327-1.113,2.141-1.455c0.812-0.343,1.67-0.514,2.611-0.514
		c0.771,0,1.455,0.085,2.055,0.299c0.643,0.214,1.198,0.514,1.713,0.856c0.514,0.385,0.941,0.813,1.326,1.284
		c0.385,0.471,0.686,0.984,0.898,1.541V34.94h0.857v19.607h-0.857v-3.725c-0.213,0.557-0.556,1.113-0.898,1.584
		c-0.385,0.514-0.812,0.898-1.326,1.283c-0.515,0.344-1.07,0.643-1.713,0.857C196.789,54.803,196.104,54.889,195.377,54.889z
		 M195.463,54.075c0.812,0,1.584-0.171,2.311-0.471c0.729-0.343,1.371-0.771,1.885-1.327c0.556-0.557,0.941-1.241,1.283-1.969
		c0.3-0.771,0.471-1.584,0.471-2.44v-0.043c0-0.856-0.171-1.712-0.471-2.44c-0.299-0.771-0.728-1.413-1.283-1.969
		c-0.557-0.557-1.156-1.027-1.885-1.327c-0.727-0.342-1.498-0.471-2.311-0.471c-0.857,0-1.627,0.171-2.355,0.471
		c-0.727,0.3-1.326,0.728-1.84,1.284c-0.514,0.557-0.942,1.199-1.199,1.969c-0.299,0.771-0.428,1.583-0.428,2.483v0.043
		c0,0.899,0.129,1.712,0.428,2.483c0.3,0.77,0.686,1.412,1.242,1.969c0.514,0.557,1.155,0.984,1.84,1.327
		C193.836,53.904,194.648,54.075,195.463,54.075z"/>
	<path fill="#FFFFFF" d="M210.146,54.803c-0.984,0-1.927-0.171-2.911-0.557c-0.984-0.342-1.84-0.855-2.611-1.498l0.514-0.685
		c0.771,0.599,1.541,1.027,2.44,1.37c0.899,0.342,1.755,0.471,2.611,0.471c0.557,0,1.027-0.086,1.498-0.215
		c0.472-0.128,0.899-0.342,1.241-0.556c0.343-0.257,0.6-0.557,0.813-0.899c0.214-0.342,0.3-0.728,0.3-1.156v-0.042
		c0-0.472-0.129-0.899-0.342-1.198c-0.215-0.343-0.557-0.6-0.942-0.814c-0.386-0.213-0.813-0.428-1.327-0.557
		c-0.514-0.128-0.984-0.299-1.498-0.471c-0.643-0.171-1.242-0.385-1.798-0.557c-0.557-0.213-1.07-0.428-1.499-0.684
		c-0.428-0.258-0.77-0.6-1.027-0.985c-0.256-0.385-0.385-0.856-0.385-1.456v-0.042c0-0.514,0.129-0.985,0.342-1.413
		c0.215-0.428,0.557-0.813,0.942-1.113c0.386-0.342,0.899-0.557,1.456-0.771c0.557-0.171,1.198-0.257,1.883-0.257
		c0.771,0,1.584,0.128,2.44,0.385c0.813,0.257,1.584,0.642,2.312,1.113l-0.471,0.728c-0.643-0.471-1.327-0.813-2.098-1.07
		c-0.729-0.257-1.455-0.342-2.184-0.342c-1.113,0-2.012,0.257-2.697,0.771c-0.685,0.514-0.984,1.156-0.984,1.883v0.043
		c0,0.428,0.129,0.771,0.343,1.07s0.514,0.556,0.899,0.771c0.385,0.214,0.812,0.428,1.283,0.557
		c0.472,0.171,1.027,0.342,1.584,0.471c0.6,0.172,1.199,0.342,1.756,0.557c0.557,0.214,1.07,0.428,1.498,0.728
		s0.771,0.642,1.027,1.027c0.257,0.429,0.385,0.899,0.385,1.499v0.042c0,0.557-0.128,1.07-0.385,1.499
		c-0.257,0.471-0.6,0.855-1.027,1.155c-0.428,0.343-0.941,0.557-1.498,0.771C211.473,54.717,210.83,54.803,210.146,54.803z"/>
	<path fill="#FFFFFF" d="M224.357,58.313c-2.354-1.327-4.152-2.997-5.394-4.923c-1.198-1.927-1.841-4.109-1.841-6.55
		c0-2.44,0.6-4.581,1.841-6.55c1.198-1.926,2.997-3.596,5.394-4.923l0.386,0.599c-2.183,1.285-3.853,2.868-4.966,4.709
		s-1.713,3.896-1.713,6.208c0,2.312,0.557,4.366,1.713,6.207c1.113,1.841,2.783,3.382,4.966,4.709L224.357,58.313z"/>
	<path fill="#FFFFFF" d="M232.748,57.757c2.184-1.284,3.854-2.868,4.966-4.709c1.113-1.841,1.712-3.896,1.712-6.207
		s-0.556-4.367-1.712-6.207c-1.112-1.841-2.782-3.382-4.966-4.709l0.386-0.6c2.354,1.327,4.152,2.997,5.394,4.923
		c1.199,1.927,1.841,4.11,1.841,6.55c0,2.44-0.599,4.581-1.841,6.55c-1.199,1.926-2.996,3.596-5.394,4.923L232.748,57.757z"/>
</g>
</svg>
